<!DOCTYPE svg PUBLIC "-//W3C//DTD SVG 20010904//EN" "http://www.w3.org/TR/2001/REC-SVG-20010904/DTD/svg10.dtd">
<svg version="1.0" xmlns="http://www.w3.org/2000/svg" width="56px" height="41px" viewBox="0 0 560 410" preserveAspectRatio="xMidYMid meet">
<g id="layer101" fill="#ffffff" stroke="none">
 <path d="M10 396 c0 -8 4 -17 9 -21 6 -3 4 -19 -5 -40 -21 -50 -17 -94 12 -153 23 -47 95 -122 116 -122 5 0 11 7 14 15 4 8 -14 34 -44 64 -55 55 -77 105 -68 155 5 26 11 32 29 32 18 -1 22 5 24 34 2 40 -9 50 -54 50 -22 0 -33 -5 -33 -14z"/>
 </g>

</svg>