<!DOCTYPE svg PUBLIC "-//W3C//DTD SVG 20010904//EN" "http://www.w3.org/TR/2001/REC-SVG-20010904/DTD/svg10.dtd">
<svg version="1.0" xmlns="http://www.w3.org/2000/svg" width="20px" height="37px" viewBox="0 0 200 370" preserveAspectRatio="xMidYMid meet">
<g id="layer101" fill="#0a0a0a" fill-rule="evenodd">
<path d="M200 30 L119 107L39 184 117 262 C159 305,195 340,197 340 L200 340L200 340 L200 355C200 363,194 370,187 370 C180 370,135 330,87 282 C39 234,0 190,0 184 C0 179,39 135,87 87 C135 39,180 0,187 0 C194 0,200 6,200 15 L200 30" />
</g>
<g id="layer102" fill="#efefef" fill-rule="evenodd">
<path d="M195 35 L188 38 L190 40 L190 45C190 47,187 50,185 50 L180 50L180 50 L180 55C180 57,177 60,175 60 L170 60L170 60 L170 65C170 67,167 70,165 70 L160 70L160 70 L160 75C160 77,157 80,155 80 L150 80L150 80 L150 85C150 87,147 90,145 90 L140 90L140 90 L140 95C140 97,137 100,135 100 L130 100L130 100 L130 105C130 107,127 110,125 110 L120 110L120 110 L120 115C120 117,117 120,115 120 L110 120L110 120 L110 125C110 127,107 130,105 130 L100 130L100 130 L100 135C100 137,97 140,95 140 L90 140L90 140 L90 145C90 147,87 150,85 150 L80 150L80 150 L80 155C80 157,77 160,75 160 L70 160L70 160 L70 165C70 167,67 170,65 170 L60 170L58 168 55 175 L48 178 48 191 L55 195 58 201 L60 200 L65 200C67 200,70 202,70 205 L70 210L70 210 L75 210C77 210,80 212,80 215 L80 220L80 220 L85 220C87 220,90 222,90 225 L90 230L90 230 L95 230C97 230,100 232,100 235 L100 240L100 240 L105 240C107 240,110 242,110 245 L110 250L110 250 L115 250C117 250,120 252,120 255 L120 260L120 260 L125 260C127 260,130 262,130 265 L130 270L130 270 L135 270C137 270,140 272,140 275 L140 280L140 280 L145 280C147 280,150 282,150 285 L150 290L150 290 L155 290C157 290,160 292,160 295 L160 300L160 300 L165 300C167 300,170 302,170 305 L170 310L170 310 L175 310C177 310,180 312,180 315 L180 320L180 320 L185 320C187 320,190 322,190 325 L190 330L190 331 195 335 L200 340 L197 340C195 340,159 305,117 262 L39 184 119 107 L200 30" />
</g>

</svg>