<!DOCTYPE svg PUBLIC "-//W3C//DTD SVG 20010904//EN" "http://www.w3.org/TR/2001/REC-SVG-20010904/DTD/svg10.dtd">
<svg version="1.0" xmlns="http://www.w3.org/2000/svg" width="11px" height="21px" viewBox="0 0 110 210" preserveAspectRatio="xMidYMid meet">
<g id="layer101" fill="#cccccc" stroke="none">
 <path d="M20 160 c0 -27 -4 -50 -10 -50 -5 0 -10 -11 -10 -25 0 -14 5 -25 10 -25 6 0 10 -8 10 -18 0 -27 20 -42 57 -42 28 0 33 3 33 24 0 18 -7 26 -22 29 l-23 4 23 2 c16 1 22 7 22 26 0 17 -5 25 -17 25 -15 0 -17 8 -15 50 4 50 4 50 -27 50 -31 0 -31 -1 -31 -50z"/>
 </g>

</svg>