<!DOCTYPE svg PUBLIC "-//W3C//DTD SVG 20010904//EN" "http://www.w3.org/TR/2001/REC-SVG-20010904/DTD/svg10.dtd">
<svg version="1.0" xmlns="http://www.w3.org/2000/svg" width="20px" height="21px" viewBox="0 0 200 210" preserveAspectRatio="xMidYMid meet">
<g id="layer101" fill="#d1cdce" stroke="none">
 <path d="M16 185 c-13 -20 -16 -44 -14 -103 l3 -77 87 -3 c106 -3 110 1 106 121 l-3 82 -81 3 c-78 3 -82 2 -98 -23z"/>
 </g>
<g id="layer102" fill="#e4d6d9" stroke="none">
 <path d="M16 185 c-9 -13 -16 -32 -15 -42 0 -14 3 -12 10 5 l9 24 35 -31 c20 -17 40 -31 45 -31 6 0 10 -5 10 -11 0 -8 -17 -9 -55 -4 -37 4 -55 3 -55 -4 0 -6 20 -11 45 -11 49 0 56 -10 30 -47 -19 -27 -40 -21 -60 16 l-15 26 2 -35 c3 -32 6 -35 38 -38 32 -3 38 1 53 33 15 31 20 34 36 25 31 -16 36 -32 16 -47 -18 -12 -17 -13 8 -13 27 0 47 24 47 57 -1 17 -1 17 -11 0 -10 -16 -12 -16 -40 3 -40 29 -37 40 11 40 22 0 40 4 40 9 0 5 -9 7 -20 4 -38 -10 -50 2 -38 41 14 43 22 45 43 9 l15 -28 -2 35 c-3 33 -5 35 -43 38 -26 2 -35 -1 -27 -6 15 -10 4 -73 -15 -79 -12 -4 -73 44 -73 58 0 5 10 14 23 19 21 9 21 9 -4 9 -18 1 -32 -7 -43 -24z"/>
 </g>
<g id="layer103" fill="#e7dfe1" stroke="none">
 <path d="M16 185 c-9 -13 -16 -32 -15 -42 0 -14 2 -13 9 5 12 28 18 28 42 -3 11 -14 24 -25 30 -25 6 0 -1 12 -16 26 -31 31 -32 40 -8 53 15 9 15 10 -4 11 -12 0 -29 -11 -38 -25z"/>
 <path d="M137 190 c4 -17 8 -19 14 -8 7 10 14 7 29 -12 l21 -25 -3 30 c-3 26 -8 30 -35 33 -28 3 -31 1 -26 -18z"/>
 <path d="M130 145 c0 -7 -6 -18 -12 -22 -7 -4 -13 -15 -13 -23 0 -8 -4 -14 -10 -14 -5 1 -29 5 -52 9 -30 5 -43 3 -43 -5 0 -6 3 -9 8 -7 16 10 87 -9 84 -23 -3 -11 0 -11 12 0 9 7 16 19 16 26 0 8 3 14 8 14 4 0 8 14 9 30 1 17 0 30 -2 30 -3 0 -5 -7 -5 -15z"/>
 <path d="M180 110 c-13 -8 -12 -10 3 -10 9 0 17 5 17 10 0 12 -1 12 -20 0z"/>
 <path d="M135 60 c3 -5 8 -10 11 -10 3 0 2 5 -1 10 -3 6 -8 10 -11 10 -3 0 -2 -4 1 -10z"/>
 <path d="M2 34 c3 -26 7 -29 41 -32 29 -3 37 0 37 14 0 14 -2 14 -16 3 -14 -12 -20 -9 -41 15 l-25 29 4 -29z"/>
 <path d="M179 44 c-8 -11 -23 -26 -34 -32 -19 -11 -18 -11 7 -12 18 0 31 7 38 21 16 29 7 47 -11 23z"/>
 </g>
<g id="layer104" fill="#f3f2f2" stroke="none">
 <path d="M16 185 c-22 -34 -20 -49 4 -25 11 11 20 24 20 29 0 5 8 12 18 14 13 4 13 5 -4 6 -13 1 -28 -9 -38 -24z"/>
 <path d="M135 201 c3 -6 14 -11 24 -11 10 0 23 -10 29 -22 11 -22 12 -22 9 7 -2 26 -6 30 -36 33 -21 2 -31 0 -26 -7z"/>
 <path d="M120 110 c0 -7 3 -10 7 -7 3 4 3 10 0 14 -4 3 -7 0 -7 -7z"/>
 <path d="M101 81 c-8 -6 -9 -11 -3 -15 6 -3 14 -1 17 5 9 14 2 20 -14 10z"/>
 <path d="M168 28 c-24 -25 -25 -28 -8 -28 11 0 24 9 30 21 18 33 7 37 -22 7z"/>
 <path d="M2 29 c2 -20 10 -25 41 -27 20 -2 37 1 37 6 0 6 -8 8 -18 6 -9 -3 -28 5 -40 17 l-24 21 4 -23z"/>
 </g>

</svg>