<!DOCTYPE svg PUBLIC "-//W3C//DTD SVG 20010904//EN" "http://www.w3.org/TR/2001/REC-SVG-20010904/DTD/svg10.dtd">
<svg version="1.0" xmlns="http://www.w3.org/2000/svg" width="20px" height="17px" viewBox="0 0 200 170" preserveAspectRatio="xMidYMid meet">
<g id="layer101" fill="#d6cbca" stroke="none">
 <path d="M7 163 c-4 -3 -7 -19 -7 -35 0 -24 4 -28 28 -29 27 0 27 -1 5 -11 -30 -15 -33 -78 -4 -78 10 0 33 -3 51 -7 28 -5 32 -4 27 10 -5 12 -1 17 13 17 11 0 20 -7 20 -15 0 -8 7 -15 15 -15 8 0 15 7 15 15 0 8 7 15 15 15 8 0 15 6 15 14 0 8 -7 16 -15 20 -8 3 -15 12 -15 21 0 8 -7 15 -15 15 -13 0 -19 -11 -17 -31 1 -4 -7 -9 -18 -12 -23 -6 -38 27 -21 47 8 9 8 22 1 40 -8 22 -16 26 -48 26 -21 0 -42 -3 -45 -7z m58 -22 c7 -12 -12 -24 -25 -16 -11 7 -4 25 10 25 5 0 11 -4 15 -9z m3 -88 c-5 -25 -28 -28 -28 -4 0 12 6 21 16 21 9 0 14 -7 12 -17z"/>
 </g>
<g id="layer102" fill="#f7f3f2" stroke="none">
 <path d="M94 39 c-3 -5 6 -9 20 -9 31 0 34 6 6 13 -11 3 -23 1 -26 -4z"/>
 </g>

</svg>