<!DOCTYPE svg PUBLIC "-//W3C//DTD SVG 20010904//EN" "http://www.w3.org/TR/2001/REC-SVG-20010904/DTD/svg10.dtd">
<svg version="1.0" xmlns="http://www.w3.org/2000/svg" width="67px" height="67px" viewBox="0 0 670 670" preserveAspectRatio="xMidYMid meet">
<g id="layer101" fill="#00597e" stroke="none">
</g>
<g id="layer102" fill="#00779b" stroke="none">
<path d="M195 641 c-73 -35 -135 -98 -169 -171 -38 -82 -37 -192 3 -275 35 -73 98 -135 171 -169 78 -37 192 -37 270 0 73 34 136 96 171 169 25 51 29 72 29 140 0 68 -4 89 -29 140 -35 73 -98 135 -171 169 -82 38 -192 37 -275 -3z"/>
</g>
<g id="layer103" fill="#0093bd" stroke="none">
<path d="M195 641 c-73 -35 -135 -98 -169 -171 -38 -82 -37 -192 3 -275 35 -73 98 -135 171 -169 78 -37 192 -37 270 0 73 34 136 96 171 169 25 51 29 72 29 140 0 68 -4 89 -29 140 -35 73 -98 135 -171 169 -82 38 -192 37 -275 -3z m-45 -372 c0 -22 -4 -38 -8 -35 -8 5 -4 76 4 76 2 0 4 -18 4 -41z m165 -69 c25 -11 -1 -11 -35 0 -20 6 -21 8 -5 8 11 0 29 -3 40 -8z"/>
</g>
<g id="layer104" fill="#00c0ab" stroke="none">
<path d="M162 498 c-7 -7 -12 -24 -12 -38 0 -14 -11 -66 -25 -115 -39 -140 -52 -124 152 -179 97 -26 180 -43 184 -39 4 4 11 24 16 43 7 25 16 36 34 40 24 6 24 7 27 139 2 90 -1 138 -9 147 -15 19 -349 20 -367 2z m-12 -230 c0 -25 -4 -38 -9 -33 -8 9 -4 75 5 75 2 0 4 -19 4 -42z m303 -79 c-3 -11 -11 -23 -17 -25 -7 -3 -52 6 -101 20 l-90 25 107 0 c103 1 106 0 101 -20z"/>
</g>
<g id="layer105" fill="#49b3c9" stroke="none">
<path d="M195 641 c-73 -35 -135 -98 -169 -171 -38 -82 -37 -192 3 -275 35 -73 98 -135 171 -169 78 -37 192 -37 270 0 73 34 136 96 171 169 25 51 29 72 29 140 0 68 -4 89 -29 140 -35 73 -98 135 -171 169 -82 38 -192 37 -275 -3z m270 -10 c62 -28 130 -94 162 -160 36 -73 39 -190 6 -263 -30 -66 -96 -133 -162 -165 -80 -39 -192 -39 -272 0 -66 32 -132 99 -162 165 -29 65 -30 188 0 253 40 89 122 160 213 186 58 17 158 9 215 -16z"/>
<path d="M162 498 c-7 -7 -12 -24 -12 -38 0 -14 -11 -66 -25 -115 -39 -140 -52 -124 152 -179 97 -26 180 -43 184 -39 4 4 11 24 16 43 7 25 16 36 34 40 24 6 24 7 27 139 2 90 -1 138 -9 147 -15 19 -349 20 -367 2z m346 -69 c3 -46 3 -47 -32 -53 -44 -8 -123 9 -159 35 -21 15 -31 17 -46 9 -11 -5 -36 -10 -55 -10 -33 0 -36 3 -36 28 0 16 3 32 7 36 4 3 77 5 162 4 l156 -3 3 -46z m-358 -161 c0 -25 -4 -38 -9 -33 -8 9 -4 75 5 75 2 0 4 -19 4 -42z m303 -79 c-3 -11 -11 -23 -17 -25 -7 -3 -52 6 -101 20 l-90 25 107 0 c103 1 106 0 101 -20z"/>
</g>
<g id="layer106" fill="#fdc64c" stroke="none">
<path d="M157 494 c-4 -4 -7 -19 -7 -33 0 -14 -12 -72 -27 -129 -16 -63 -23 -106 -17 -112 14 -14 347 -101 355 -92 4 4 11 23 16 42 7 25 16 36 34 40 l24 6 0 139 0 140 -186 3 c-102 1 -188 -1 -192 -4z m351 -66 c3 -44 2 -46 -27 -53 -45 -10 -117 4 -156 30 -32 22 -35 22 -76 9 -23 -8 -48 -13 -56 -10 -13 6 -18 57 -6 70 4 3 77 5 162 4 l156 -3 3 -47z m-358 -160 c0 -28 -3 -39 -10 -32 -9 9 -3 74 6 74 2 0 4 -19 4 -42z m302 -83 c-2 -14 -11 -25 -19 -25 -18 0 -176 40 -182 46 -2 2 43 4 101 4 l105 0 -5 -25z"/>
</g>
<g id="layer107" fill="#acc8b8" stroke="none">
<path d="M157 494 c-4 -4 -7 -19 -7 -33 0 -14 -12 -72 -27 -129 -16 -63 -23 -106 -17 -112 14 -14 347 -101 355 -92 4 4 11 23 16 42 7 25 16 36 34 40 l24 6 0 139 0 140 -186 3 c-102 1 -188 -1 -192 -4z m351 -66 c3 -44 2 -46 -27 -53 -45 -10 -117 4 -156 30 -32 22 -35 22 -76 9 -23 -8 -48 -13 -56 -10 -13 6 -18 57 -6 70 4 3 77 5 162 4 l156 -3 3 -47z m-260 -134 c35 -39 29 -54 -23 -54 l-45 0 0 46 c0 42 2 45 23 39 12 -4 32 -18 45 -31z m-98 -26 c0 -28 -3 -39 -10 -32 -9 9 -3 74 6 74 2 0 4 -19 4 -42z m302 -83 c-2 -14 -11 -25 -19 -25 -18 0 -176 40 -182 46 -2 2 43 4 101 4 l105 0 -5 -25z"/>
</g>
<g id="layer108" fill="#85dbee" stroke="none">
<path d="M195 641 c-73 -35 -135 -98 -169 -171 -38 -82 -37 -192 3 -275 35 -73 98 -135 171 -169 78 -37 192 -37 270 0 73 34 136 96 171 169 25 51 29 72 29 140 0 68 -4 89 -29 140 -35 73 -98 135 -171 169 -82 38 -192 37 -275 -3z m270 -10 c65 -29 138 -101 167 -165 32 -72 32 -190 -1 -263 -28 -62 -102 -136 -169 -166 -66 -30 -188 -30 -254 0 -67 30 -141 104 -169 166 -33 73 -33 191 -1 262 25 55 91 128 137 152 90 48 201 53 290 14z"/>
<path d="M157 494 c-4 -4 -7 -28 -7 -54 0 -25 -4 -50 -9 -56 -15 -16 -44 -155 -35 -164 14 -14 347 -101 355 -92 4 4 11 23 16 42 7 25 16 36 34 40 l24 6 0 139 0 140 -186 3 c-102 1 -188 -1 -192 -4z m351 -66 c3 -44 2 -46 -27 -53 -45 -10 -117 4 -156 30 -32 22 -35 22 -76 9 -23 -8 -48 -13 -56 -10 -13 6 -18 57 -6 70 4 3 77 5 162 4 l156 -3 3 -47z m-263 -123 c14 -13 25 -33 25 -45 0 -17 -6 -20 -45 -20 l-45 0 0 45 c0 39 3 45 20 45 12 0 32 -11 45 -25z m-95 -37 c0 -28 -3 -39 -10 -32 -9 9 -3 74 6 74 2 0 4 -19 4 -42z m302 -83 c-2 -14 -11 -25 -19 -25 -18 0 -176 40 -182 46 -2 2 43 4 101 4 l105 0 -5 -25z"/>
</g>
<g id="layer109" fill="#f0f3f3" stroke="none">
<path d="M195 641 c-73 -35 -135 -98 -169 -171 -38 -82 -37 -192 3 -275 35 -73 98 -135 171 -169 78 -37 192 -37 270 0 73 34 136 96 171 169 25 51 29 72 29 140 0 68 -4 89 -29 140 -35 73 -98 135 -171 169 -82 38 -192 37 -275 -3z m294 -16 c114 -63 175 -173 169 -305 -6 -124 -72 -226 -183 -281 -42 -20 -65 -24 -140 -24 -106 0 -163 22 -230 90 -145 145 -119 400 51 506 66 40 104 49 194 46 71 -2 94 -8 139 -32z"/>
<path d="M157 457 c-3 -23 -18 -85 -33 -136 -14 -51 -22 -96 -18 -100 15 -13 334 -93 348 -88 7 3 16 21 20 41 5 26 12 36 29 38 21 3 22 7 25 146 l3 142 -184 0 -184 0 -6 -43z m353 -97 l0 -120 -165 0 -165 0 0 120 0 120 165 0 165 0 0 -120z m-350 -81 c0 -40 -3 -50 -16 -47 -18 4 -18 1 -9 60 9 61 25 52 25 -13z m300 -83 c0 -7 -6 -20 -13 -30 -12 -16 -18 -15 -114 11 -56 15 -100 30 -98 33 2 3 53 4 114 2 80 -2 111 -7 111 -16z"/>
</g>


</svg>