<!DOCTYPE svg PUBLIC "-//W3C//DTD SVG 20010904//EN" "http://www.w3.org/TR/2001/REC-SVG-20010904/DTD/svg10.dtd">
<svg version="1.0" xmlns="http://www.w3.org/2000/svg" width="67px" height="67px" viewBox="0 0 670 670" preserveAspectRatio="xMidYMid meet">
<g id="layer101" fill="#5e5957" stroke="none">
</g>
<g id="layer102" fill="#1f8fa3" stroke="none">
</g>
<g id="layer103" fill="#08caee" stroke="none">
<path d="M195 641 c-73 -35 -135 -98 -169 -171 -38 -82 -37 -192 3 -275 35 -73 98 -135 171 -169 78 -37 192 -37 270 0 73 34 136 96 171 169 25 51 29 72 29 140 0 68 -4 89 -29 140 -35 73 -98 135 -171 169 -82 38 -192 37 -275 -3z"/>
</g>
<g id="layer104" fill="#b5e3ee" stroke="none">
<path d="M195 641 c-73 -35 -135 -98 -169 -171 -38 -82 -37 -192 3 -275 35 -73 98 -135 171 -169 78 -37 192 -37 270 0 73 34 136 96 171 169 25 51 29 72 29 140 0 68 -4 89 -29 140 -35 73 -98 135 -171 169 -82 38 -192 37 -275 -3z m282 -14 c66 -34 115 -83 150 -150 25 -46 28 -63 27 -137 -1 -107 -29 -175 -98 -238 -71 -66 -125 -87 -221 -87 -97 0 -151 22 -224 90 -70 66 -96 128 -96 235 0 73 4 92 28 137 33 64 83 116 140 144 66 34 87 39 167 35 57 -2 87 -9 127 -29z"/>
<path d="M265 471 c-3 -6 -15 -11 -26 -11 -12 0 -19 -7 -19 -19 0 -10 -7 -24 -15 -31 -19 -16 -8 -33 17 -27 13 4 28 -3 44 -20 24 -26 31 -43 16 -43 -5 0 -28 -16 -51 -36 -38 -33 -41 -38 -27 -52 14 -14 23 -13 90 10 l75 25 28 -29 c39 -42 61 -52 79 -37 20 17 18 21 -25 71 l-39 44 23 70 c16 49 20 73 13 82 -16 19 -24 15 -66 -38 l-39 -49 -27 28 c-15 16 -26 37 -24 46 3 20 -17 32 -27 16z"/>
</g>
<g id="layer105" fill="#f2f0ef" stroke="none">
<path d="M195 641 c-73 -35 -135 -98 -169 -171 -38 -82 -37 -192 3 -275 35 -73 98 -135 171 -169 78 -37 192 -37 270 0 73 34 136 96 171 169 25 51 29 72 29 140 0 68 -4 89 -29 140 -35 73 -98 135 -171 169 -82 38 -192 37 -275 -3z m283 -11 c116 -59 173 -148 180 -282 4 -76 1 -92 -21 -141 -34 -75 -87 -131 -159 -167 -53 -26 -72 -30 -143 -30 -71 0 -90 4 -143 30 -72 36 -125 92 -159 167 -22 49 -25 65 -21 141 7 134 64 223 180 282 53 26 72 30 143 30 71 0 90 -4 143 -30z"/>
<path d="M264 465 c-4 -8 -15 -15 -25 -15 -11 0 -16 -5 -13 -14 3 -7 -2 -16 -10 -19 -27 -11 -18 -27 15 -27 16 0 28 -4 25 -8 -3 -5 4 -16 15 -25 19 -17 26 -37 11 -37 -5 0 -28 -16 -51 -36 -38 -33 -41 -38 -28 -52 14 -13 24 -12 90 10 l74 25 37 -34 c36 -33 75 -41 83 -17 2 6 -15 30 -37 54 -22 23 -40 43 -40 44 0 2 11 35 24 74 22 63 23 72 9 84 -13 10 -18 9 -33 -10 -10 -12 -29 -35 -44 -52 l-26 -31 -25 25 c-14 14 -25 37 -25 51 0 27 -17 34 -26 10z"/>
</g>


</svg>