<!DOCTYPE svg PUBLIC "-//W3C//DTD SVG 20010904//EN" "http://www.w3.org/TR/2001/REC-SVG-20010904/DTD/svg10.dtd">
<svg version="1.0" xmlns="http://www.w3.org/2000/svg" width="67px" height="67px" viewBox="0 0 670 670" preserveAspectRatio="xMidYMid meet">
<g id="layer101" fill="#1b4d5c" stroke="none">
 <path d="M195 641 c-73 -35 -135 -98 -169 -171 -38 -82 -37 -192 3 -275 35 -73 98 -135 171 -169 78 -37 192 -37 270 0 73 34 136 96 171 169 25 51 29 72 29 140 0 68 -4 89 -29 140 -35 73 -98 135 -171 169 -82 38 -192 37 -275 -3z"/>
 </g>
<g id="layer102" fill="#657f86" stroke="none">
 <path d="M195 641 c-73 -35 -135 -98 -169 -171 -38 -82 -37 -192 3 -275 35 -73 98 -135 171 -169 78 -37 192 -37 270 0 73 34 136 96 171 169 25 51 29 72 29 140 0 68 -4 89 -29 140 -35 73 -98 135 -171 169 -82 38 -192 37 -275 -3z m53 -59 c-3 -45 -11 -68 -37 -106 -18 -26 -37 -63 -42 -82 -22 -76 35 -170 118 -194 81 -25 162 13 201 92 31 61 24 109 -26 181 -29 42 -37 64 -40 111 l-5 59 28 -7 c104 -26 190 -137 211 -272 8 -51 -17 -150 -50 -202 -81 -129 -260 -183 -396 -121 -104 49 -159 113 -186 221 -35 136 34 292 157 355 67 35 72 32 67 -35z"/>
 <path d="M150 185 c-13 -14 -19 -25 -13 -25 12 0 48 38 41 45 -2 3 -15 -6 -28 -20z"/>
 <path d="M490 203 c0 -12 38 -48 45 -41 3 2 -6 15 -20 28 -14 13 -25 19 -25 13z"/>
 <path d="M231 132 c-6 -12 -11 -27 -11 -34 1 -7 8 0 16 15 9 16 13 31 11 34 -3 2 -10 -4 -16 -15z"/>
 <path d="M421 145 c0 -18 28 -61 29 -44 0 8 -7 24 -15 35 -8 10 -14 15 -14 9z"/>
 <path d="M332 100 c0 -19 2 -27 5 -17 2 9 2 25 0 35 -3 9 -5 1 -5 -18z"/>
 </g>
<g id="layer103" fill="#fdc954" stroke="none">
 <path d="M195 641 c-73 -35 -135 -98 -169 -171 -38 -82 -37 -192 3 -275 35 -73 98 -135 171 -169 78 -37 192 -37 270 0 73 34 136 96 171 169 25 51 29 72 29 140 0 68 -4 89 -29 140 -35 73 -98 135 -171 169 -82 38 -192 37 -275 -3z m55 -49 c0 -49 -5 -66 -35 -112 -43 -66 -49 -88 -43 -145 10 -83 79 -140 170 -139 89 1 158 72 158 164 0 42 -12 73 -55 136 -20 29 -25 49 -25 95 0 33 2 59 5 59 3 0 25 -9 50 -21 59 -28 118 -86 152 -151 25 -47 28 -63 28 -143 -1 -77 -5 -97 -27 -140 -34 -65 -100 -128 -163 -157 -70 -32 -190 -32 -260 0 -63 29 -129 92 -163 157 -22 43 -26 63 -27 140 0 80 3 96 28 143 33 64 92 123 150 150 23 12 45 21 50 22 4 0 7 -26 7 -58z"/>
 </g>
<g id="layer104" fill="#eae8e2" stroke="none">
 <path d="M195 641 c-73 -35 -135 -98 -169 -171 -38 -82 -37 -192 3 -275 35 -73 98 -135 171 -169 78 -37 192 -37 270 0 73 34 136 96 171 169 25 51 29 72 29 140 0 68 -4 89 -29 140 -35 73 -98 135 -171 169 -82 38 -192 37 -275 -3z m55 -27 c0 -31 2 -35 15 -24 26 22 35 0 35 -90 0 -84 -1 -88 -24 -94 -30 -7 -41 -35 -22 -54 18 -18 46 -9 53 18 7 27 49 27 56 0 7 -27 35 -36 53 -18 19 19 8 47 -22 54 -23 6 -24 10 -24 94 0 90 9 112 35 90 13 -11 15 -7 15 24 0 20 2 36 5 36 3 0 25 -9 50 -21 59 -28 118 -86 152 -151 25 -47 28 -63 28 -143 -1 -77 -5 -97 -27 -140 -34 -65 -100 -128 -163 -157 -70 -32 -190 -32 -260 0 -63 29 -129 92 -163 157 -22 43 -26 63 -27 140 0 80 3 96 28 143 33 64 92 123 150 150 56 28 57 28 57 -14z m110 -109 c0 -95 0 -95 -25 -95 -25 0 -25 0 -25 95 0 95 0 95 25 95 25 0 25 0 25 -95z m-70 -135 c-12 -22 -30 -18 -30 6 0 8 9 14 20 14 18 0 19 -3 10 -20z m120 6 c0 -24 -18 -28 -30 -6 -9 17 -8 20 10 20 11 0 20 -6 20 -14z"/>
 </g>

</svg>