<!DOCTYPE svg PUBLIC "-//W3C//DTD SVG 20010904//EN" "http://www.w3.org/TR/2001/REC-SVG-20010904/DTD/svg10.dtd">
<svg version="1.0" xmlns="http://www.w3.org/2000/svg" width="130px" height="65px" viewBox="0 0 1300 650" preserveAspectRatio="xMidYMid meet">
<g id="layer101" fill="#a9a9ac" stroke="none">
 <path d="M23 638 c-29 -14 -29 -25 2 -70 14 -20 25 -41 25 -47 0 -5 4 -11 8 -13 5 -1 28 -37 52 -78 53 -94 80 -138 165 -273 l67 -107 57 -16 c31 -9 62 -19 70 -22 18 -7 5 34 -24 73 -18 24 -91 143 -123 199 -7 12 150 1 173 -11 9 -6 54 -68 100 -139 81 -126 83 -129 121 -132 22 -2 47 3 58 11 19 14 19 15 -6 48 -28 37 -288 456 -288 463 0 3 -14 27 -31 55 -31 49 -34 51 -75 51 l-44 0 0 -40 c0 -23 8 -53 18 -68 49 -72 91 -140 107 -171 l17 -34 -64 7 c-130 15 -118 4 -235 214 -58 103 -94 127 -150 100z"/>
 <path d="M528 619 c-28 -16 -21 -58 22 -130 35 -59 44 -68 82 -77 71 -18 71 -2 2 87 -24 30 -41 58 -38 62 2 4 17 3 33 -2 23 -8 37 -28 71 -97 23 -48 61 -119 86 -158 45 -73 52 -90 34 -79 -18 11 -90 -6 -90 -21 0 -8 6 -15 13 -16 6 0 17 -2 22 -3 6 -2 30 -3 55 -4 39 -1 48 -5 66 -34 18 -28 27 -33 67 -35 54 -2 66 11 40 40 l-18 21 75 -6 c235 -19 250 -20 250 -6 0 26 -55 38 -200 44 -164 6 -159 4 -215 107 -15 27 -51 86 -81 131 -86 130 -68 138 56 24 110 -101 190 -136 190 -84 0 13 -9 32 -20 42 -15 14 -17 22 -9 38 6 11 9 35 6 53 l-5 32 41 -19 c51 -22 67 -24 67 -5 0 22 -117 75 -182 82 -68 8 -76 -6 -28 -48 31 -27 41 -68 16 -68 -8 0 -18 5 -21 10 -9 15 -104 84 -140 102 -56 28 -83 30 -106 7 -20 -20 -22 -20 -62 -4 -23 10 -46 19 -52 21 -5 2 -18 -1 -27 -7z"/>
 <path d="M672 358 c-18 -18 -15 -42 9 -72 24 -30 55 -32 73 -4 13 22 -7 62 -41 77 -29 13 -26 14 -41 -1z"/>
 </g>

</svg>