<!DOCTYPE svg PUBLIC "-//W3C//DTD SVG 20010904//EN" "http://www.w3.org/TR/2001/REC-SVG-20010904/DTD/svg10.dtd">
<svg version="1.0" xmlns="http://www.w3.org/2000/svg" width="110px" height="56px" viewBox="0 0 1100 560" preserveAspectRatio="xMidYMid meet">
<g id="layer101" fill="#b2b2b4" stroke="none">
 <path d="M0 280 l0 -280 550 0 550 0 0 280 0 280 -550 0 -550 0 0 -280z m1060 0 l0 -240 -510 0 -510 0 0 240 0 240 510 0 510 0 0 -240z"/>
 <path d="M200 280 l0 -120 54 0 c59 0 72 9 82 58 4 21 1 40 -10 56 -14 22 -14 29 -1 67 20 56 19 59 -15 59 -27 0 -30 -4 -36 -40 -9 -57 -24 -60 -24 -6 0 42 -2 46 -25 46 l-25 0 0 -120z m78 -47 c-4 -39 -28 -42 -28 -4 0 21 5 31 16 31 11 0 14 -8 12 -27z"/>
 <path d="M386 378 c-3 -13 -12 -59 -21 -103 -9 -44 -19 -88 -21 -97 -4 -14 1 -18 24 -18 28 0 30 2 39 63 l9 62 8 -40 c16 -85 15 -85 41 -85 31 0 31 9 5 118 -11 46 -20 92 -20 103 0 30 -58 27 -64 -3z"/>
 <path d="M500 280 l0 -120 31 0 30 0 -3 95 -3 94 30 3 c22 2 30 8 30 23 0 17 -8 20 -57 23 l-58 3 0 -121z"/>
 <path d="M645 378 c-3 -13 -14 -61 -25 -108 -26 -110 -26 -112 8 -108 25 3 28 8 38 68 l10 65 7 -53 c11 -73 16 -82 44 -82 21 0 24 3 19 23 -3 12 -13 62 -22 112 -9 50 -18 93 -21 98 -2 4 -15 7 -28 7 -17 0 -26 -7 -30 -22z"/>
 <path d="M760 280 l0 -120 54 0 c31 0 58 5 64 13 20 24 24 65 10 95 -13 24 -13 35 -2 73 18 59 18 61 -13 57 -24 -3 -29 -9 -37 -45 -13 -56 -26 -55 -26 2 0 41 -2 45 -25 45 l-25 0 0 -120z m78 -47 c-4 -39 -28 -42 -28 -4 0 21 5 31 16 31 11 0 14 -8 12 -27z"/>
 </g>

</svg>