<!DOCTYPE svg PUBLIC "-//W3C//DTD SVG 20010904//EN" "http://www.w3.org/TR/2001/REC-SVG-20010904/DTD/svg10.dtd">
<svg version="1.0" xmlns="http://www.w3.org/2000/svg" width="98px" height="85px" viewBox="0 0 980 850" preserveAspectRatio="xMidYMid meet">
<g id="layer101" fill="#a9a9ac" stroke="none">
 <path d="M67 832 c-10 -10 -17 -27 -17 -38 0 -27 52 -133 99 -202 27 -40 37 -62 30 -69 -7 -7 -18 -3 -34 13 -52 52 -145 15 -145 -58 0 -38 37 -84 75 -94 14 -3 22 -10 19 -16 -3 -5 2 -20 10 -33 19 -28 66 -34 86 -11 16 21 9 60 -13 64 -14 3 -18 -2 -15 -20 4 -27 -25 -33 -30 -5 -2 9 1 17 7 17 6 0 11 7 11 15 0 10 -11 15 -35 15 -41 0 -75 29 -75 63 0 31 18 47 52 47 31 0 50 -26 41 -58 -7 -29 25 -30 35 -2 7 19 10 17 30 -19 21 -36 56 -71 73 -71 9 0 49 36 49 44 0 3 -11 24 -25 46 -14 22 -21 40 -17 40 12 0 33 -26 62 -74 l23 -38 -21 7 c-31 9 -27 -4 10 -42 l32 -33 -34 6 c-19 4 -39 10 -45 14 -21 17 -75 3 -96 -24 -20 -25 -20 -28 -5 -51 37 -56 83 -98 140 -128 58 -31 66 -32 176 -32 l114 0 33 -33 c18 -17 39 -32 47 -32 7 0 33 -9 57 -20 56 -25 91 -25 114 0 17 19 17 25 5 72 -17 70 -100 201 -100 160 0 -5 16 -35 36 -68 41 -69 57 -150 31 -160 -16 -6 -71 18 -171 73 l-49 27 24 16 c74 48 159 156 159 203 0 33 -33 14 -60 -36 -14 -26 -40 -61 -56 -78 -28 -27 -33 -29 -57 -18 -28 13 -34 24 -17 34 12 7 50 79 50 95 0 17 -30 11 -37 -7 -4 -10 -17 -34 -29 -55 l-23 -36 -38 19 c-21 11 -55 25 -75 31 -26 7 -38 17 -38 29 0 10 -5 21 -11 25 -8 4 -7 9 2 14 8 5 19 0 31 -16 27 -33 78 -34 78 -1 0 13 -4 27 -8 33 -5 5 -21 32 -37 59 -19 33 -23 45 -11 36 10 -8 26 -32 37 -53 13 -25 26 -38 39 -38 26 0 26 3 -11 67 -25 44 -28 53 -13 45 11 -6 33 -33 49 -60 25 -42 36 -51 65 -55 21 -3 41 1 49 8 11 11 10 21 -13 60 -14 26 -26 50 -26 53 0 12 43 -35 62 -69 22 -39 58 -62 82 -53 9 4 20 -5 30 -24 13 -25 34 -42 52 -42 11 0 0 26 -45 105 -27 47 -45 85 -40 85 18 0 87 -99 82 -118 -2 -10 2 -24 10 -30 12 -10 18 -5 37 30 l22 42 -22 39 -22 39 21 -11 c11 -7 21 -16 21 -21 0 -6 7 -10 15 -10 23 0 18 16 -16 44 -56 48 -98 23 -65 -38 l17 -31 -33 36 c-18 20 -46 43 -63 52 -27 15 -28 16 -7 17 29 0 28 6 -10 70 -87 142 -254 204 -408 150 -55 -19 -55 -19 -80 1 -41 32 -162 89 -191 89 -14 0 -33 -8 -42 -18z m157 -51 l95 -48 -41 -33 c-22 -18 -52 -52 -67 -75 l-27 -43 -36 57 c-42 66 -68 124 -68 156 0 49 25 47 144 -14z m198 -76 c-28 -23 -62 -26 -62 -5 0 10 47 28 73 29 15 1 12 -4 -11 -24z m129 -30 c-18 -61 -20 -62 -99 -29 l-34 14 30 25 c34 28 67 43 98 44 21 1 21 0 5 -54z m124 -57 c4 -16 4 -32 1 -35 -6 -6 -106 17 -106 25 0 3 8 30 17 60 l17 55 33 -38 c17 -20 35 -50 38 -67z m-202 -13 c33 -12 47 -23 47 -36 0 -21 11 -24 26 -9 6 6 31 4 69 -5 33 -8 76 -15 95 -15 19 0 41 -4 48 -9 8 -5 -16 -8 -59 -7 -65 1 -74 -1 -77 -18 -2 -10 6 -37 19 -60 l22 -41 -25 23 c-14 13 -33 40 -43 62 -16 36 -20 38 -61 38 -24 0 -46 -3 -48 -7 -8 -13 -66 0 -66 15 0 7 -9 29 -21 48 -15 26 -28 36 -45 36 -32 0 -39 -21 -19 -59 14 -29 14 -31 -2 -32 -43 -4 -109 -4 -116 -1 -12 6 45 102 76 128 l29 24 51 -29 c29 -15 73 -36 100 -46z m273 -7 c14 -26 13 -28 -6 -28 -13 0 -22 9 -26 28 -3 15 -8 33 -10 41 -7 23 25 -8 42 -41z m-482 -159 c13 -23 15 -30 5 -27 -8 2 -25 24 -38 49 -21 37 -21 41 -5 27 10 -9 27 -31 38 -49z m155 -21 c19 -33 20 -36 4 -32 -16 5 -73 92 -73 111 0 13 46 -40 69 -79z m357 31 c17 -33 18 -43 4 -34 -6 4 -20 25 -32 48 -17 34 -18 39 -4 28 10 -8 24 -27 32 -42z m-494 -185 c16 -45 16 -45 -4 -27 -11 10 -26 30 -34 45 -13 26 -13 28 3 28 12 0 23 -15 35 -46z m109 19 c16 -3 29 -9 29 -12 0 -17 -33 -101 -39 -101 -14 0 -48 45 -60 79 -16 49 -14 54 15 47 15 -4 39 -10 55 -13z m138 -100 c9 -6 -72 -34 -88 -31 -15 3 -16 7 -3 52 l14 48 36 -33 c20 -19 39 -35 41 -36z m10 48 c22 -11 30 -21 22 -25 -6 -4 -25 4 -42 18 -36 30 -28 33 20 7z m81 -41 c21 -13 1 -25 -39 -21 -11 1 -11 4 -1 16 14 17 20 18 40 5z"/>
 <path d="M560 350 c0 -16 5 -21 23 -18 12 2 22 10 22 18 0 8 -10 16 -22 18 -18 3 -23 -2 -23 -18z"/>
 </g>

</svg>