<!DOCTYPE svg PUBLIC "-//W3C//DTD SVG 20010904//EN" "http://www.w3.org/TR/2001/REC-SVG-20010904/DTD/svg10.dtd">
<svg version="1.0" xmlns="http://www.w3.org/2000/svg" width="95px" height="61px" viewBox="0 0 950 610" preserveAspectRatio="xMidYMid meet">
<g id="layer101" fill="#b1b1b4" stroke="none">
 <path d="M370 600 c0 -5 -7 -7 -15 -4 -11 5 -15 -1 -15 -19 0 -32 13 -41 38 -28 14 7 18 18 15 36 -5 24 -23 36 -23 15z"/>
 <path d="M430 585 c0 -14 5 -26 10 -26 30 -5 35 -2 37 24 1 23 -2 27 -23 27 -19 0 -24 -5 -24 -25z"/>
 <path d="M510 595 c0 -8 -4 -15 -10 -15 -5 0 -10 -7 -10 -15 0 -10 10 -15 30 -15 17 0 30 5 30 10 0 6 -4 10 -10 10 -5 0 -10 9 -10 20 0 11 -4 20 -10 20 -5 0 -10 -7 -10 -15z"/>
 <path d="M572 598 c-14 -14 -16 -48 -3 -48 5 0 12 8 14 18 4 13 5 11 6 -5 0 -13 5 -23 10 -23 16 0 23 40 11 55 -15 18 -22 19 -38 3z"/>
 <path d="M300 573 c0 -23 17 -49 26 -41 9 10 -4 58 -16 58 -6 0 -10 -8 -10 -17z"/>
 <path d="M636 574 c-12 -30 -6 -44 18 -44 28 0 42 26 25 46 -15 19 -35 18 -43 -2z"/>
 <path d="M243 573 c-28 -5 -29 -15 -5 -36 28 -25 42 -21 42 13 0 17 -3 29 -7 29 -5 -1 -18 -4 -30 -6z"/>
 <path d="M702 545 c-15 -33 -15 -35 2 -35 14 0 26 21 26 46 0 22 -16 16 -28 -11z"/>
 <path d="M172 541 c-17 -11 -5 -61 15 -61 10 0 13 6 9 16 -5 14 -4 15 9 4 22 -18 31 -4 15 25 -14 26 -26 30 -48 16z"/>
 <path d="M734 525 c-4 -9 0 -23 9 -32 21 -21 49 -9 45 19 -4 28 -45 38 -54 13z"/>
 <path d="M320 486 c0 -21 5 -26 26 -26 21 0 25 4 22 23 -2 14 -11 23 -25 25 -19 3 -23 -1 -23 -22z"/>
 <path d="M380 483 c0 -22 2 -24 15 -13 10 9 15 9 15 1 0 -6 5 -11 10 -11 6 0 10 11 10 24 0 18 -5 24 -25 24 -20 0 -25 -6 -25 -25z"/>
 <path d="M440 485 c0 -14 5 -25 10 -25 6 0 10 11 10 25 0 14 -4 25 -10 25 -5 0 -10 -11 -10 -25z"/>
 <path d="M474 488 c2 -34 36 -37 36 -4 0 19 -5 26 -19 26 -13 0 -18 -7 -17 -22z"/>
 <path d="M530 485 c0 -18 5 -25 19 -25 13 0 19 7 19 25 0 18 -6 25 -19 25 -14 0 -19 -7 -19 -25z"/>
 <path d="M583 486 c0 -18 5 -23 22 -23 17 0 23 5 23 23 0 18 -6 24 -23 24 -17 0 -22 -6 -22 -24z"/>
 <path d="M302 407 c-40 -42 -24 -90 38 -116 20 -9 16 -10 -22 -5 -31 4 -48 2 -48 -4 0 -16 81 -102 95 -102 7 0 16 11 19 24 3 14 15 28 27 31 12 4 18 13 15 20 -9 24 37 21 99 -6 65 -29 134 -42 156 -29 10 7 7 15 -13 35 -26 25 -31 27 -163 35 -5 0 1 9 14 20 23 20 23 20 48 0 14 -11 36 -20 49 -20 58 0 89 92 42 124 -40 29 -67 20 -126 -41 l-55 -58 -51 58 c-57 64 -88 73 -124 34z m76 -45 c4 -28 -24 -40 -45 -19 -21 21 -9 49 19 45 15 -2 24 -11 26 -26z m262 13 c10 -12 10 -18 0 -30 -7 -8 -18 -15 -25 -15 -19 0 -36 25 -29 44 8 20 38 21 54 1z m-217 -76 c-10 -4 -26 -8 -37 -8 -16 -1 -15 1 5 18 18 15 27 17 37 8 12 -9 11 -12 -5 -18z"/>
 <path d="M57 394 c-16 -17 11 -24 89 -24 68 0 84 3 84 15 0 12 -16 15 -83 15 -46 0 -87 -3 -90 -6z"/>
 <path d="M727 394 c-4 -4 -7 -11 -7 -16 0 -12 170 -5 173 7 2 11 -155 20 -166 9z"/>
 <path d="M0 330 c0 -6 37 -10 90 -10 53 0 90 4 90 10 0 6 -37 10 -90 10 -53 0 -90 -4 -90 -10z"/>
 <path d="M770 330 c0 -6 37 -10 90 -10 53 0 90 4 90 10 0 6 -37 10 -90 10 -53 0 -90 -4 -90 -10z"/>
 <path d="M50 280 c0 -6 37 -10 90 -10 53 0 90 4 90 10 0 6 -37 10 -90 10 -53 0 -90 -4 -90 -10z"/>
 <path d="M720 280 c0 -6 37 -10 90 -10 53 0 90 4 90 10 0 6 -37 10 -90 10 -53 0 -90 -4 -90 -10z"/>
 <path d="M171 135 c-25 -67 -26 -88 -5 -83 9 2 27 30 41 62 20 47 22 61 11 67 -22 14 -26 11 -47 -46z"/>
 <path d="M740 171 c-5 -11 -10 -27 -10 -35 0 -25 -17 -19 -24 9 -4 14 -11 25 -16 25 -20 0 -22 -25 -4 -82 17 -58 18 -60 48 -54 39 8 76 33 76 51 0 8 -8 23 -19 34 -12 12 -17 27 -14 45 6 32 -21 37 -37 7z m20 -91 c-19 -13 -30 -13 -30 0 0 6 10 10 23 10 18 0 19 -2 7 -10z"/>
 <path d="M313 135 c-52 -22 -54 -98 -3 -125 23 -12 50 -13 69 -1 12 8 12 12 2 25 -11 13 -11 16 3 16 12 0 16 9 16 34 0 51 -36 72 -87 51z m40 -42 c-7 -2 -13 -13 -13 -23 0 -10 6 -21 13 -23 7 -4 6 -6 -4 -6 -22 -1 -43 25 -35 44 3 8 16 15 28 14 13 0 17 -3 11 -6z"/>
 <path d="M510 127 c-35 -18 -48 -61 -29 -95 19 -34 80 -43 110 -16 56 51 -13 145 -81 111z m58 -60 c4 -31 -20 -46 -43 -27 -18 15 -20 46 -2 53 25 11 42 1 45 -26z"/>
 </g>

</svg>