<!DOCTYPE svg PUBLIC "-//W3C//DTD SVG 20010904//EN" "http://www.w3.org/TR/2001/REC-SVG-20010904/DTD/svg10.dtd">
<svg version="1.0" xmlns="http://www.w3.org/2000/svg" width="120px" height="54px" viewBox="0 0 1200 540" preserveAspectRatio="xMidYMid meet">
<g id="layer101" fill="#adadb0" stroke="none">
 <path d="M75 533 c-41 -11 -75 -43 -75 -73 0 -35 13 -45 31 -23 47 56 226 58 237 2 2 -11 -23 -32 -73 -63 -41 -26 -80 -56 -85 -66 -15 -28 -12 -77 6 -116 38 -80 199 -180 307 -191 51 -5 58 -3 82 21 22 22 26 33 21 58 -12 60 -81 126 -148 143 -39 10 -36 -14 5 -40 39 -25 77 -80 77 -113 0 -23 -3 -24 -40 -19 -60 8 -129 45 -187 101 -53 53 -73 97 -56 125 5 9 35 34 66 56 76 53 92 78 78 113 -28 66 -151 108 -246 85z"/>
 <path d="M330 495 l0 -24 115 0 c79 1 115 5 115 13 0 8 2 8 8 -1 4 -6 31 -11 60 -11 44 -1 53 2 48 14 -3 9 -6 19 -6 22 0 4 -77 8 -170 9 l-170 2 0 -24z"/>
 <path d="M690 495 c0 -28 24 -34 34 -9 10 26 7 34 -14 34 -15 0 -20 -7 -20 -25z"/>
 <path d="M746 513 c-3 -4 -6 -15 -6 -25 0 -16 9 -18 89 -18 62 0 91 4 94 13 4 10 6 10 6 0 1 -20 59 -16 64 5 4 16 5 16 6 0 1 -15 11 -18 71 -18 66 0 70 1 70 23 l0 23 -194 1 c-107 1 -197 -1 -200 -4z"/>
 <path d="M352 428 c-7 -7 -12 -22 -12 -34 0 -26 67 -117 83 -111 20 6 19 36 -2 63 -48 61 -12 59 43 -2 47 -53 83 -74 124 -74 55 0 49 55 -8 85 -16 8 -38 15 -50 15 -11 0 -20 7 -20 15 0 8 9 15 20 15 36 0 74 -27 110 -79 36 -52 56 -60 54 -22 -1 27 4 27 37 -5 48 -46 79 -11 41 44 -32 47 -34 52 -17 52 8 0 34 -27 58 -59 43 -61 63 -71 61 -33 -1 22 3 21 48 -11 50 -37 64 4 23 66 -38 55 -11 45 61 -23 62 -57 116 -82 143 -65 16 10 13 45 -5 52 -8 3 -13 12 -9 21 3 8 0 21 -6 29 -24 28 0 23 35 -7 31 -28 36 -29 36 -13 0 21 -40 63 -78 82 -24 13 -62 6 -62 -10 0 -6 -10 -3 -22 5 -26 19 -65 21 -70 5 -3 -9 -9 -9 -25 0 -53 28 -86 3 -65 -51 10 -27 9 -28 -6 -17 -9 7 -30 25 -47 40 -16 14 -37 27 -45 28 -80 8 -85 7 -88 -22 -2 -16 2 -35 9 -43 26 -31 -9 -11 -46 26 -26 26 -45 38 -56 35 -10 -3 -20 -1 -24 5 -9 15 -100 12 -114 -3 -6 -8 -7 -18 -3 -22 4 -5 -7 1 -25 13 -35 25 -63 28 -81 10z m723 -69 c19 -17 35 -40 35 -51 0 -18 -1 -18 -24 -1 -31 23 -68 83 -51 83 2 0 20 -14 40 -31z"/>
 <path d="M430 263 c0 -22 18 -43 38 -43 9 0 12 9 10 28 -4 33 -48 47 -48 15z"/>
 </g>

</svg>