<!DOCTYPE svg PUBLIC "-//W3C//DTD SVG 20010904//EN" "http://www.w3.org/TR/2001/REC-SVG-20010904/DTD/svg10.dtd">
<svg version="1.0" xmlns="http://www.w3.org/2000/svg" width="22px" height="22px" viewBox="0 0 220 220" preserveAspectRatio="xMidYMid meet">
<g id="layer101" fill="#ffffff" stroke="none">
 <path d="M80 181 c-11 -22 -28 -42 -39 -46 -11 -3 -25 -12 -31 -20 -10 -12 6 -23 94 -67 58 -29 109 -49 113 -44 8 8 -97 216 -109 216 -4 0 -17 -18 -28 -39z m59 -58 l23 -48 -34 30 c-18 17 -34 30 -36 31 -5 2 10 34 17 34 4 0 17 -21 30 -47z m-24 -38 l40 -35 -57 27 c-38 18 -53 30 -45 35 18 11 18 11 62 -27z"/>
 </g>

</svg>