<!DOCTYPE svg PUBLIC "-//W3C//DTD SVG 20010904//EN" "http://www.w3.org/TR/2001/REC-SVG-20010904/DTD/svg10.dtd">
<svg version="1.0" xmlns="http://www.w3.org/2000/svg" width="59px" height="59px" viewBox="0 0 590 590" preserveAspectRatio="xMidYMid meet">
<g id="layer101" fill="#f3f5f7" stroke="none">
 <path d="M184 574 c-54 -19 -118 -75 -151 -131 -36 -61 -44 -176 -18 -254 24 -70 101 -149 169 -172 63 -22 159 -22 222 0 66 22 145 101 167 167 22 63 22 159 0 222 -22 66 -101 145 -167 167 -60 21 -166 21 -222 1z"/>
 </g>
<g id="layer102" fill="#2b356b" stroke="none">
 <path d="M184 574 c-54 -19 -118 -75 -151 -131 -36 -61 -44 -176 -18 -254 24 -70 101 -149 169 -172 63 -22 159 -22 222 0 66 22 145 101 167 167 22 63 22 159 0 222 -22 66 -101 145 -167 167 -60 21 -166 21 -222 1z m189 -264 l27 -17 -22 -11 c-13 -6 -51 -27 -85 -46 l-63 -36 0 95 0 95 58 -32 c31 -18 69 -39 85 -48z"/>
 </g>

</svg>