<!DOCTYPE svg PUBLIC "-//W3C//DTD SVG 20010904//EN" "http://www.w3.org/TR/2001/REC-SVG-20010904/DTD/svg10.dtd">
<svg version="1.0" xmlns="http://www.w3.org/2000/svg" width="42px" height="47px" viewBox="0 0 420 470" preserveAspectRatio="xMidYMid meet">
<g id="layer101" fill="#fe8b8b" stroke="none">
 <path d="M19 453 c-20 -23 -25 -387 -6 -423 23 -46 59 -38 197 41 201 115 205 118 205 164 0 46 -4 49 -204 164 -127 72 -168 84 -192 54z"/>
 </g>
<g id="layer102" fill="#ffd1d1" stroke="none">
 <path d="M4 235 c0 -104 2 -146 3 -92 2 54 2 139 0 190 -1 51 -3 7 -3 -98z"/>
 <path d="M385 284 c17 -16 32 -28 34 -27 7 4 -21 34 -43 45 -14 7 -11 2 9 -18z"/>
 <path d="M385 186 c-20 -20 -23 -25 -9 -18 22 11 50 41 43 45 -2 1 -17 -11 -34 -27z"/>
 </g>
<g id="layer103" fill="#fff2f2" stroke="none">
 </g>

</svg>