<!DOCTYPE svg PUBLIC "-//W3C//DTD SVG 20010904//EN" "http://www.w3.org/TR/2001/REC-SVG-20010904/DTD/svg10.dtd">
<svg version="1.0" xmlns="http://www.w3.org/2000/svg" width="630px" height="367px" viewBox="0 0 6300 3670" preserveAspectRatio="xMidYMid meet">
<g id="layer101" fill="#bababa" stroke="none">
 <path d="M640 3649 c-80 -4 -190 -13 -245 -20 -291 -35 -339 -51 -362 -121 -16 -48 -1 -102 35 -126 22 -15 58 -17 248 -20 184 -3 224 -6 228 -19 3 -8 6 -708 6 -1556 l0 -1542 38 -74 c32 -64 44 -78 96 -110 l59 -36 2331 0 2331 0 -2275 5 c-1310 3 -2283 9 -2295 14 -35 16 -84 56 -96 79 -9 16 -4 13 17 -9 16 -17 45 -40 64 -50 34 -19 95 -19 2350 -19 l2315 0 47 28 c28 16 57 44 72 70 14 23 26 37 26 30 0 -6 -15 -32 -34 -56 l-35 -46 29 11 c41 14 102 74 131 128 l24 45 3 1553 2 1552 145 0 c83 0 146 4 150 10 4 6 -65 11 -187 13 -182 2 -179 3 65 5 252 2 257 2 257 22 0 14 -11 26 -32 35 -20 9 -26 14 -15 15 10 0 29 -11 43 -25 31 -31 48 -31 79 0 55 54 12 137 -80 155 -27 5 -61 12 -75 15 -69 16 -255 35 -425 45 -222 12 -4805 11 -5035 -1z m-449 -203 c-14 -8 -28 -22 -32 -32 -7 -16 -8 -17 -8 -2 -1 17 35 48 54 48 5 -1 -1 -7 -14 -14z m347 -63 c-71 -2 -185 -2 -255 0 -71 1 -13 3 127 3 140 0 198 -2 128 -3z"/>
 </g>
<g id="layer102" fill="#f4f4f4" stroke="none">
 <path d="M640 3649 c-80 -4 -190 -13 -245 -20 -291 -35 -339 -51 -362 -121 -16 -48 -1 -102 35 -126 22 -15 58 -17 248 -20 184 -3 224 -6 228 -19 3 -8 6 -708 6 -1556 l0 -1542 38 -74 c32 -64 44 -78 96 -110 l59 -36 2331 0 2331 0 -2275 5 c-1310 3 -2283 9 -2295 14 -35 16 -84 56 -96 79 -9 16 -4 13 17 -9 16 -17 45 -40 64 -50 34 -19 95 -19 2350 -19 l2315 0 47 28 c28 16 57 44 72 70 14 23 26 37 26 30 0 -6 -15 -32 -34 -56 l-35 -46 29 11 c41 14 102 74 131 128 l24 45 3 1553 2 1552 145 0 c85 0 146 4 150 10 5 8 -281 18 -407 13 -16 -1 -28 2 -28 6 0 4 128 6 283 3 l284 -5 -2 24 c-1 15 -12 27 -31 36 -19 8 -23 12 -11 13 10 0 29 -11 43 -25 31 -31 48 -31 79 0 55 54 12 137 -80 155 -27 5 -61 12 -75 15 -69 16 -255 35 -425 45 -222 12 -4805 11 -5035 -1z m5140 -92 c47 -2 94 -8 105 -14 11 -6 36 -9 55 -6 24 3 31 1 21 -5 -7 -5 -11 -14 -7 -20 4 -7 -8 -12 -31 -15 l-38 -4 42 -1 c23 -1 44 -5 46 -9 3 -5 -19 -6 -49 -5 -30 2 -52 7 -50 10 7 12 -63 12 -2569 16 -2281 4 -2689 1 -2872 -22 -55 -6 -70 -6 -63 3 8 9 3 11 -16 7 -19 -3 -22 -7 -12 -13 9 -6 7 -9 -9 -9 -24 0 -31 14 -12 25 6 4 8 14 5 22 -3 8 -1 11 5 8 5 -4 16 -2 23 4 7 6 24 11 37 12 13 0 1135 4 2494 7 l2470 7 -2220 5 -2220 6 2390 -3 c1315 -2 2428 -4 2475 -6z m-5589 -111 c-14 -8 -28 -22 -32 -32 -7 -16 -8 -17 -8 -2 -1 17 35 48 54 48 5 -1 -1 -7 -14 -14z m539 -54 c0 -5 -127 -9 -282 -8 l-283 0 215 6 c118 3 245 7 283 8 37 1 67 -2 67 -6z m4902 -1875 c2 -724 0 -1317 -4 -1317 -5 0 -7 714 -6 1588 2 873 4 1466 5 1317 2 -148 4 -863 5 -1588z m-4912 261 c0 -871 -4 -1578 -8 -1571 -8 12 -5 3153 3 3153 3 0 5 -712 5 -1582z"/>
 <path d="M5313 3523 c15 -2 37 -2 50 0 12 2 0 4 -28 4 -27 0 -38 -2 -22 -4z"/>
 <path d="M673 3513 c20 -2 54 -2 75 0 20 2 3 4 -38 4 -41 0 -58 -2 -37 -4z"/>
 <path d="M5588 3513 c17 -2 47 -2 65 0 17 2 3 4 -33 4 -36 0 -50 -2 -32 -4z"/>
 <path d="M523 3503 c15 -2 37 -2 50 0 12 2 0 4 -28 4 -27 0 -38 -2 -22 -4z"/>
 <path d="M5783 3503 c15 -2 37 -2 50 0 12 2 0 4 -28 4 -27 0 -38 -2 -22 -4z"/>
 <path d="M413 3493 c9 -2 25 -2 35 0 9 3 1 5 -18 5 -19 0 -27 -2 -17 -5z"/>
 </g>

</svg>